<svg width="92" height="19" viewBox="0 0 92 19" fill="none" xmlns="http://www.w3.org/2000/svg">
<path d="M1.448 18C1.288 18 1.152 17.944 1.04 17.832C0.928 17.72 0.872 17.584 0.872 17.424V1.8C0.872 1.624 0.928 1.48 1.04 1.368C1.152 1.256 1.288 1.2 1.448 1.2H7.304C8.92 1.2 10.248 1.448 11.288 1.944C12.344 2.44 13.136 3.176 13.664 4.152C14.208 5.128 14.488 6.32 14.504 7.728C14.536 8.432 14.552 9.056 14.552 9.6C14.552 10.144 14.536 10.76 14.504 11.448C14.472 12.936 14.2 14.168 13.688 15.144C13.176 16.104 12.4 16.824 11.36 17.304C10.336 17.768 9.024 18 7.424 18H1.448ZM4.208 15.24H7.304C8.2 15.24 8.928 15.112 9.488 14.856C10.048 14.6 10.456 14.192 10.712 13.632C10.984 13.056 11.128 12.304 11.144 11.376C11.16 10.896 11.168 10.48 11.168 10.128C11.184 9.76 11.184 9.4 11.168 9.048C11.168 8.68 11.16 8.264 11.144 7.8C11.112 6.488 10.784 5.52 10.16 4.896C9.536 4.272 8.544 3.96 7.184 3.96H4.208V15.24ZM18.323 18C18.163 18 18.027 17.944 17.915 17.832C17.803 17.72 17.747 17.584 17.747 17.424V1.776C17.747 1.616 17.803 1.48 17.915 1.368C18.027 1.256 18.163 1.2 18.323 1.2H20.579C20.755 1.2 20.891 1.256 20.987 1.368C21.099 1.48 21.155 1.616 21.155 1.776V17.424C21.155 17.584 21.099 17.72 20.987 17.832C20.891 17.944 20.755 18 20.579 18H18.323ZM30.7509 18.24C29.2629 18.24 28.0149 18.024 27.0069 17.592C26.0149 17.144 25.2549 16.568 24.7269 15.864C24.2149 15.144 23.9429 14.392 23.9109 13.608C23.9109 13.464 23.9589 13.344 24.0549 13.248C24.1509 13.152 24.2709 13.104 24.4149 13.104H26.5509C26.7589 13.104 26.9109 13.152 27.0069 13.248C27.1189 13.328 27.2149 13.432 27.2949 13.56C27.3909 13.864 27.5749 14.168 27.8469 14.472C28.1189 14.76 28.4869 15 28.9509 15.192C29.4309 15.384 30.0309 15.48 30.7509 15.48C31.9029 15.48 32.7589 15.288 33.3189 14.904C33.8949 14.52 34.1829 14 34.1829 13.344C34.1829 12.88 34.0309 12.512 33.7269 12.24C33.4229 11.952 32.9509 11.696 32.3109 11.472C31.6869 11.232 30.8549 10.984 29.8149 10.728C28.6149 10.44 27.6069 10.096 26.7909 9.696C25.9909 9.28 25.3829 8.76 24.9669 8.136C24.5669 7.512 24.3669 6.72 24.3669 5.76C24.3669 4.832 24.6149 4.008 25.1109 3.288C25.6229 2.568 26.3429 2 27.2709 1.584C28.2149 1.168 29.3349 0.959999 30.6309 0.959999C31.6709 0.959999 32.5909 1.104 33.3909 1.392C34.1909 1.664 34.8549 2.032 35.3829 2.496C35.9109 2.944 36.3109 3.432 36.5829 3.96C36.8709 4.472 37.0229 4.976 37.0389 5.472C37.0389 5.6 36.9909 5.72 36.8949 5.832C36.8149 5.928 36.6949 5.976 36.5349 5.976H34.3029C34.1749 5.976 34.0469 5.944 33.9189 5.88C33.7909 5.816 33.6869 5.696 33.6069 5.52C33.5109 5.024 33.1989 4.6 32.6709 4.248C32.1429 3.896 31.4629 3.72 30.6309 3.72C29.7669 3.72 29.0709 3.88 28.5429 4.2C28.0149 4.52 27.7509 5.016 27.7509 5.688C27.7509 6.136 27.8789 6.512 28.1349 6.816C28.4069 7.104 28.8309 7.36 29.4069 7.584C29.9989 7.808 30.7749 8.048 31.7349 8.304C33.0949 8.608 34.2069 8.96 35.0709 9.36C35.9349 9.76 36.5669 10.272 36.9669 10.896C37.3669 11.504 37.5669 12.28 37.5669 13.224C37.5669 14.28 37.2789 15.184 36.7029 15.936C36.1429 16.672 35.3509 17.24 34.3269 17.64C33.3029 18.04 32.1109 18.24 30.7509 18.24ZM40.8933 18C40.7333 18 40.5973 17.944 40.4853 17.832C40.3733 17.72 40.3173 17.584 40.3173 17.424V1.8C40.3173 1.624 40.3733 1.48 40.4853 1.368C40.5973 1.256 40.7333 1.2 40.8933 1.2H43.0053C43.1813 1.2 43.3253 1.256 43.4373 1.368C43.5493 1.48 43.6053 1.624 43.6053 1.8V7.416L49.0293 1.632C49.0933 1.552 49.1973 1.464 49.3413 1.368C49.5013 1.256 49.7093 1.2 49.9653 1.2H52.3413C52.4693 1.2 52.5813 1.248 52.6773 1.344C52.7893 1.44 52.8453 1.56 52.8453 1.704C52.8453 1.816 52.8133 1.912 52.7493 1.992L46.1493 9.24L53.2053 17.184C53.2853 17.28 53.3253 17.384 53.3253 17.496C53.3253 17.64 53.2693 17.76 53.1573 17.856C53.0613 17.952 52.9493 18 52.8213 18H50.3493C50.0773 18 49.8613 17.944 49.7013 17.832C49.5573 17.704 49.4613 17.616 49.4133 17.568L43.6053 11.208V17.424C43.6053 17.584 43.5493 17.72 43.4373 17.832C43.3253 17.944 43.1813 18 43.0053 18H40.8933ZM62.1305 18.24C60.7385 18.24 59.5305 18.008 58.5065 17.544C57.4825 17.064 56.6905 16.336 56.1305 15.36C55.5705 14.368 55.2905 13.104 55.2905 11.568V1.8C55.2905 1.624 55.3465 1.48 55.4585 1.368C55.5705 1.256 55.7065 1.2 55.8665 1.2H58.0505C58.2265 1.2 58.3625 1.256 58.4585 1.368C58.5705 1.48 58.6265 1.624 58.6265 1.8V11.568C58.6265 12.88 58.9385 13.856 59.5625 14.496C60.1865 15.12 61.0425 15.432 62.1305 15.432C63.2185 15.432 64.0665 15.12 64.6745 14.496C65.2985 13.856 65.6105 12.88 65.6105 11.568V1.8C65.6105 1.624 65.6665 1.48 65.7785 1.368C65.8905 1.256 66.0345 1.2 66.2105 1.2H68.3705C68.5465 1.2 68.6825 1.256 68.7785 1.368C68.8905 1.48 68.9465 1.624 68.9465 1.8V11.568C68.9465 13.104 68.6665 14.368 68.1065 15.36C67.5625 16.336 66.7785 17.064 65.7545 17.544C64.7465 18.008 63.5385 18.24 62.1305 18.24ZM78.3759 18.24C76.8879 18.24 75.6399 18.024 74.6319 17.592C73.6399 17.144 72.8799 16.568 72.3519 15.864C71.8399 15.144 71.5679 14.392 71.5359 13.608C71.5359 13.464 71.5839 13.344 71.6799 13.248C71.7759 13.152 71.8959 13.104 72.0399 13.104H74.1759C74.3839 13.104 74.5359 13.152 74.6319 13.248C74.7439 13.328 74.8399 13.432 74.9199 13.56C75.0159 13.864 75.1999 14.168 75.4719 14.472C75.7439 14.76 76.1119 15 76.5759 15.192C77.0559 15.384 77.6559 15.48 78.3759 15.48C79.5279 15.48 80.3839 15.288 80.9439 14.904C81.5199 14.52 81.8079 14 81.8079 13.344C81.8079 12.88 81.6559 12.512 81.3519 12.24C81.0479 11.952 80.5759 11.696 79.9359 11.472C79.3119 11.232 78.4799 10.984 77.4399 10.728C76.2399 10.44 75.2319 10.096 74.4159 9.696C73.6159 9.28 73.0079 8.76 72.5919 8.136C72.1919 7.512 71.9919 6.72 71.9919 5.76C71.9919 4.832 72.2399 4.008 72.7359 3.288C73.2479 2.568 73.9679 2 74.8959 1.584C75.8399 1.168 76.9599 0.959999 78.2559 0.959999C79.2959 0.959999 80.2159 1.104 81.0159 1.392C81.8159 1.664 82.4799 2.032 83.0079 2.496C83.5359 2.944 83.9359 3.432 84.2079 3.96C84.4959 4.472 84.6479 4.976 84.6639 5.472C84.6639 5.6 84.6159 5.72 84.5199 5.832C84.4399 5.928 84.3199 5.976 84.1599 5.976H81.9279C81.7999 5.976 81.6719 5.944 81.5439 5.88C81.4159 5.816 81.3119 5.696 81.2319 5.52C81.1359 5.024 80.8239 4.6 80.2959 4.248C79.7679 3.896 79.0879 3.72 78.2559 3.72C77.3919 3.72 76.6959 3.88 76.1679 4.2C75.6399 4.52 75.3759 5.016 75.3759 5.688C75.3759 6.136 75.5039 6.512 75.7599 6.816C76.0319 7.104 76.4559 7.36 77.0319 7.584C77.6239 7.808 78.3999 8.048 79.3599 8.304C80.7199 8.608 81.8319 8.96 82.6959 9.36C83.5599 9.76 84.1919 10.272 84.5919 10.896C84.9919 11.504 85.1919 12.28 85.1919 13.224C85.1919 14.28 84.9039 15.184 84.3279 15.936C83.7679 16.672 82.9759 17.24 81.9519 17.64C80.9279 18.04 79.7359 18.24 78.3759 18.24ZM88.5183 18C88.3583 18 88.2223 17.944 88.1103 17.832C87.9983 17.72 87.9423 17.584 87.9423 17.424V1.776C87.9423 1.616 87.9983 1.48 88.1103 1.368C88.2223 1.256 88.3583 1.2 88.5183 1.2H90.7743C90.9503 1.2 91.0863 1.256 91.1823 1.368C91.2943 1.48 91.3503 1.616 91.3503 1.776V17.424C91.3503 17.584 91.2943 17.72 91.1823 17.832C91.0863 17.944 90.9503 18 90.7743 18H88.5183Z" fill="white"/>
</svg>
